<svg xmlns="http://www.w3.org/2000/svg" viewBox="0 0 210 270" role="img" aria-labelledby="title desc">
  <title id="title">추천하고 싶은 책 스케치</title>
  <desc id="desc">펼친 책과 생선, 흰 매듭이 있는 손그림</desc>
  <rect width="210" height="270" fill="#fffdfa"/>
  <path d="M28 63c35-11 58-4 78 17 23-22 48-29 76-17v154c-29-9-54-2-76 20-22-21-47-29-78-20z" fill="#f6f1e7" stroke="#242321" stroke-width="5" stroke-linejoin="round"/>
  <path d="M106 81v154M50 93h37m-37 19h42m31-20h36m-37 19h32" stroke="#242321" stroke-width="3" stroke-linecap="round" opacity=".45"/>
  <path d="M48 158c30-22 63-23 99-4 22 12 42 13 61 3-13 27-43 39-85 32-33-5-59-15-75-31z" fill="#d39b2d" stroke="#242321" stroke-width="4" stroke-linejoin="round"/>
  <circle cx="76" cy="157" r="12" fill="#fffdfa" stroke="#242321" stroke-width="4"/>
  <circle cx="79" cy="156" r="4" fill="#242321"/>
  <path d="M48 158c-12 0-22 6-30 16 12 4 23 2 32-5" fill="#fffdfa" stroke="#242321" stroke-width="4" stroke-linecap="round" stroke-linejoin="round"/>
  <path d="M144 117c-7-22 8-36 30-35 8 19-6 34-30 35zm11 4c22-10 40 2 41 24-20 10-37 2-41-24zm-4 1c16 18 15 39-3 59-16-20-15-40 3-59z" fill="#fffdfa" stroke="#242321" stroke-width="3"/>
</svg>
