<svg xmlns="http://www.w3.org/2000/svg" viewBox="0 0 210 270" role="img" aria-labelledby="title desc">
  <title id="title">요즘 읽는 책 스케치</title>
  <desc id="desc">책 위에 놓인 머스터드 생선과 흰 매듭 손그림</desc>
  <rect width="210" height="270" fill="#fffdfa"/>
  <path d="M42 37h126v196H42z" fill="#f6f1e7" stroke="#242321" stroke-width="5"/>
  <path d="M64 57h82M64 75h54M64 214h68" stroke="#242321" stroke-width="3" stroke-linecap="round" opacity=".55"/>
  <path d="M61 154c28-22 60-23 96-2 20 12 39 13 58 3-12 27-39 39-78 31-32-6-57-16-76-32z" fill="#d39b2d" stroke="#242321" stroke-width="4" stroke-linejoin="round"/>
  <circle cx="86" cy="153" r="12" fill="#fffdfa" stroke="#242321" stroke-width="4"/>
  <circle cx="89" cy="152" r="4" fill="#242321"/>
  <path d="M60 154c-12 1-23 6-31 16 12 4 23 2 32-5" fill="#fffdfa" stroke="#242321" stroke-width="4" stroke-linecap="round" stroke-linejoin="round"/>
  <path d="M196 154c11-11 24-16 39-14-7 8-9 18-2 27-14-1-27-5-37-13z" fill="#242321"/>
  <path d="M121 107c-7-20 6-34 27-33 8 18-5 32-27 33zm12 4c21-12 40-1 43 20-18 12-37 5-43-20zm-3 0c17 19 17 39 1 60-17-18-17-39-1-60z" fill="#fffdfa" stroke="#242321" stroke-width="3"/>
</svg>
