<svg xmlns="http://www.w3.org/2000/svg" viewBox="0 0 420 300" role="img" aria-labelledby="title desc">
  <title id="title">푸른 해안 스케치</title>
  <desc id="desc">머스터드 색 생선과 파도, 흰 매듭을 손그림처럼 표현한 그림</desc>
  <rect width="420" height="300" fill="#fffdfa"/>
  <path d="M74 202c52-28 112-28 168-2 46 21 84 19 119-6" fill="none" stroke="#242321" stroke-width="4" stroke-linecap="round"/>
  <path d="M79 217c49-21 96-19 142 2 48 23 96 22 149-8" fill="none" stroke="#242321" stroke-width="2" stroke-linecap="round" opacity=".45"/>
  <path d="M90 152c44-35 95-37 154-6 35 18 62 20 92 8-24 39-70 55-126 45-48-8-89-25-120-47z" fill="#d39b2d" stroke="#242321" stroke-width="4" stroke-linejoin="round"/>
  <path d="M321 153c24-20 48-27 73-23-13 14-17 29-5 45-25-2-47-10-68-22z" fill="#242321"/>
  <circle cx="134" cy="151" r="17" fill="#fffdfa" stroke="#242321" stroke-width="4"/>
  <circle cx="137" cy="150" r="6" fill="#242321"/>
  <path d="M93 153c-15 1-27 8-37 21 16 5 31 2 43-8" fill="#fffdfa" stroke="#242321" stroke-width="4" stroke-linecap="round" stroke-linejoin="round"/>
  <path d="M184 138c23 19 28 45 18 66" fill="none" stroke="#242321" stroke-width="3" stroke-linecap="round"/>
  <path d="M220 115c-10-30 10-48 39-46 12 27-6 47-39 46z" fill="#fffdfa" stroke="#242321" stroke-width="3"/>
  <path d="M238 119c25-20 52-8 58 22-21 17-47 11-58-22z" fill="#fffdfa" stroke="#242321" stroke-width="3"/>
  <path d="M226 119c23 25 27 53 8 83-24-24-27-55-8-83z" fill="#fffdfa" stroke="#242321" stroke-width="3"/>
  <path d="M236 135c-14 13-22 29-24 48m49-100c-16 6-28 15-35 29m56 36c-18-6-32-15-42-28" fill="none" stroke="#242321" stroke-width="1.7" opacity=".55"/>
</svg>
